<svg width="147.974" height="40" viewBox="0 0 39.151 10.583" xml:space="preserve" xmlns="http://www.w3.org/2000/svg"><g style="fill:#f7cf0d"><path d="M10.054 0H.53A.53.53 0 0 0 0 .53v9.524c0 .291.238.53.53.53h.851c-.09-2.419-.005-2.779.164-3.017.207-.296.291-.333.603-.582.265-.212.17-.556-.02-.804-.117-.154-.281-.334-.408-.508-.08-.117.116-.8.19-1.048.074-.249.201-1.058 1.313-1.275.418-.085 1.566-.143 2.354-.096-.005-.031-.015-.068-.02-.105-.017-.064-.027-.133-.043-.207l-.048-.217c-.016-.074-.037-.148-.053-.227-.02-.08-.037-.154-.063-.233a3.374 3.374 0 0 0-.159-.46 1.871 1.871 0 0 0-.1-.207.497.497 0 0 0-.106-.132c-.006-.005-.01-.01-.016-.01h-.005.01s.005 0 0 0l-.016-.006h-.01l-.021-.005H4.9a1.556 1.556 0 0 0-.222 0c-.154.01-.318.042-.476.079-.16.037-.313.085-.46.127-.064.021-.122.042-.18.058.005.048.01.09.01.138a1.242 1.242 0 1 1-2.482 0 1.243 1.243 0 0 1 2.323-.62l.17-.063c.148-.058.312-.116.481-.17.175-.052.355-.105.556-.131.1-.016.206-.022.322-.016h.043c.016 0 .032.005.042.005h.037l.016.005h.005l.016.006s.01 0 .016.005l.021.005c.032.01.048.016.069.027.021.01.037.015.058.026.037.021.069.042.1.064a1.24 1.24 0 0 1 .249.286c.064.095.112.185.154.274.085.18.153.36.206.53l.08.254c.026.084.042.164.063.243.01.037.021.08.027.116.01.038.016.075.026.112l.048.217c.02.105.037.206.053.296 1.185.116 2.09.27 2.497.677.598.582 1.059 3.228.757 6.588h.53a.53.53 0 0 0 .528-.529V.53A.53.53 0 0 0 10.054 0Z"/><path d="M4.837 7.45c-.07.191-.127 2.419.529 2.419s.661-2.286.64-2.418c-.021-.127-1.1-.186-1.17 0zm-.868-2.158c-.45-.064-.72 2.127-.09 2.254.592.116.534-2.19.09-2.254zm2.953 0c-.45-.064-.72 2.127-.09 2.254.592.116.54-2.19.09-2.254z"/></g><g aria-label="SPONGE" style="font-size:6.08542px;line-height:1.25;fill:#f7cf0d;stroke-width:.264583"><path d="M14.171 7.495q-.511 0-.98-.134-.468-.14-.754-.36l.335-.742q.273.195.645.323.377.122.76.122.292 0 .469-.055.182-.061.268-.165.085-.103.085-.237 0-.17-.134-.268-.134-.103-.353-.164-.22-.067-.487-.122-.262-.06-.53-.146-.261-.085-.48-.219-.22-.134-.36-.353-.133-.219-.133-.56 0-.365.195-.663.2-.304.596-.48.402-.183 1.004-.183.402 0 .791.097.39.091.688.28l-.304.749q-.298-.17-.597-.25-.298-.085-.584-.085t-.468.067q-.183.067-.262.176-.08.104-.08.244 0 .164.135.267.134.098.353.159.219.06.48.121.268.061.53.14.268.08.487.213.219.134.353.353.14.22.14.554 0 .36-.201.657-.201.299-.603.481-.395.183-1.004.183zM16.654 7.422v-4.26h1.844q.572 0 .986.188.414.183.639.53.225.347.225.828 0 .474-.225.821t-.64.536q-.413.182-.985.182h-1.296l.438-.444v1.619Zm.986-1.51-.438-.468h1.241q.457 0 .682-.195.225-.195.225-.541 0-.353-.225-.548-.225-.195-.682-.195h-1.241l.438-.468zM23.178 7.495q-.505 0-.938-.165-.426-.164-.742-.462-.31-.298-.487-.7-.17-.402-.17-.876 0-.475.17-.877.177-.401.493-.7.317-.298.743-.462.426-.164.925-.164.505 0 .925.164.425.164.736.463.316.298.493.7.176.395.176.876 0 .474-.176.882-.177.402-.493.7-.31.292-.736.456-.42.165-.92.165Zm-.006-.84q.286 0 .523-.098.243-.097.426-.28.182-.182.28-.432.103-.249.103-.553 0-.305-.103-.554-.098-.25-.28-.432-.177-.183-.42-.28-.243-.097-.53-.097-.285 0-.529.097-.237.097-.42.28-.182.182-.286.432-.097.25-.097.554 0 .298.097.553.104.25.28.433.183.182.426.28.244.097.53.097zM26.245 7.422v-4.26h.815l2.513 3.067h-.395V3.162h.974v4.26h-.81l-2.52-3.067h.396v3.067zM33.219 7.495q-.506 0-.932-.159-.42-.164-.736-.462-.31-.298-.487-.7-.17-.402-.17-.882 0-.481.17-.883.177-.401.493-.7.317-.298.743-.456.426-.164.937-.164.566 0 1.016.188.456.19.767.548l-.633.584q-.231-.243-.505-.359-.274-.121-.596-.121-.31 0-.566.097-.256.097-.445.28-.182.182-.286.432-.097.25-.097.554 0 .298.097.547.104.25.286.439.189.182.438.28.256.097.56.097.292 0 .566-.091.28-.098.542-.323l.56.712q-.347.262-.81.402-.456.14-.912.14Zm.821-.67v-1.6h.9v1.728ZM36.76 4.878h2.051v.767h-2.05zm.073 1.753h2.319v.79h-3.298v-4.26h3.219v.792h-2.24z" style="font-weight:700;font-family:Montserrat;-inkscape-font-specification:'Montserrat Bold'"/></g></svg>